<svg width="48" height="48" viewBox="0 0 48 48" fill="none" xmlns="http://www.w3.org/2000/svg">
<path d="M4.58725 9.64956L13.9622 0.274593C14.1381 0.0988121 14.3765 0 14.6251 0H37.1249C38.6757 0 39.9373 1.26168 39.9373 2.81249V3.75008H39.9374H40.875C42.4258 3.75008 43.6875 5.01176 43.6875 6.56257V45.1875C43.6875 46.7383 42.4258 48 40.875 48H10.8752C9.32442 48 8.06273 46.7383 8.06273 45.1875V44.2499V44.2498H7.12505C5.57424 44.2498 4.31265 42.9881 4.31265 41.4373V10.3125C4.31265 10.0638 4.41147 9.82543 4.58725 9.64956ZM13.6876 3.20089L7.51355 9.37496H12.7501C13.2671 9.37496 13.6876 8.9544 13.6876 8.43747V3.20089ZM6.18764 41.4373C6.18764 41.9543 6.60811 42.3748 7.12505 42.3748H37.1249C37.6419 42.3748 38.0623 41.9543 38.0623 41.4373V18.75C38.0623 18.2323 38.4821 17.8125 38.9998 17.8125C39.5175 17.8125 39.9373 18.2323 39.9373 18.75V41.4373C39.9373 42.9881 38.6757 44.2498 37.1249 44.2498H9.93773V44.2499V45.1875C9.93773 45.7044 10.3583 46.125 10.8752 46.125H40.875C41.3919 46.125 41.8125 45.7044 41.8125 45.1875V6.56257C41.8125 6.04563 41.3919 5.62507 40.875 5.62507H39.9374H39.9373V10.3126C39.9373 10.8302 39.5175 11.25 38.9998 11.25C38.4821 11.25 38.0623 10.8302 38.0623 10.3126V2.81249C38.0623 2.29555 37.6419 1.87499 37.1249 1.87499H15.5626V8.43747C15.5626 9.98827 14.3009 11.25 12.7501 11.25H6.18764V41.4373Z" fill="#FC981C"/>
<path d="M18.3754 9.37494H33.3748C33.8924 9.37494 34.3123 9.79475 34.3123 10.3124C34.3123 10.8301 33.8924 11.2499 33.3748 11.2499H18.3754C17.8577 11.2499 17.4379 10.8301 17.4379 10.3124C17.4379 9.79475 17.8576 9.37494 18.3754 9.37494Z" fill="#FC981C"/>
<path d="M18.3754 18.4999H33.3748C33.8924 18.4999 34.3123 18.9197 34.3123 19.4374C34.3123 19.9551 33.8924 20.3749 33.3748 20.3749H18.3754C17.8577 20.3749 17.4379 19.9551 17.4379 19.4374C17.4379 18.9197 17.8576 18.4999 18.3754 18.4999Z" fill="#FC981C"/>
<path d="M33.3748 24.9373H25.8751C25.3574 24.9373 24.9376 24.5175 24.9376 23.9998C24.9376 23.4821 25.3574 23.0623 25.8751 23.0623H33.3748C33.8924 23.0623 34.3123 23.4821 34.3123 23.9998C34.3123 24.5175 33.8925 24.9373 33.3748 24.9373Z" fill="#FC981C"/>
<path d="M33.3748 29.4998H25.8751C25.3574 29.4998 24.9376 29.0799 24.9376 28.5623C24.9376 28.0446 25.3574 27.6248 25.8751 27.6248H33.3748C33.8924 27.6248 34.3123 28.0446 34.3123 28.5623C34.3123 29.0799 33.8925 29.4998 33.3748 29.4998Z" fill="#FC981C"/>
<path d="M20.437 32.1871H33.3748C33.8924 32.1871 34.3123 32.6069 34.3123 33.1246C34.3123 33.6423 33.8924 34.0621 33.3748 34.0621H20.437C19.9193 34.0621 19.4995 33.6423 19.4995 33.1246C19.4995 32.6069 19.9193 32.1871 20.437 32.1871Z" fill="#FC981C"/>
<path d="M21.2544 36.7497H33.3748C33.8924 36.7497 34.3123 37.1695 34.3123 37.6872C34.3123 38.2049 33.8924 38.6247 33.3748 38.6247H21.2544C20.7367 38.6247 20.3169 38.2049 20.3169 37.6872C20.3169 37.1695 20.7366 36.7497 21.2544 36.7497Z" fill="#FC981C"/>
<path d="M33.3748 6.68756H25.8751C25.3574 6.68756 24.9376 6.26775 24.9376 5.75006C24.9376 5.23237 25.3574 4.81256 25.8751 4.81256H33.3748C33.8924 4.81256 34.3123 5.23237 34.3123 5.75006C34.3123 6.26775 33.8925 6.68756 33.3748 6.68756Z" fill="#FC981C"/>
<path d="M38.9998 13.5937C39.5174 13.5937 39.9373 14.0138 39.9373 14.5316C39.9373 15.0493 39.5174 15.4691 38.9998 15.4691C38.4821 15.4691 38.0623 15.0493 38.0623 14.5316V14.5308C38.0623 14.0131 38.4821 13.5937 38.9998 13.5937Z" fill="#FC981C"/>
</svg>
