<svg width="48" height="48" viewBox="0 0 48 48" fill="none" xmlns="http://www.w3.org/2000/svg">
<g clip-path="url(#clip0_1_256)">
<path d="M26.5279 35.8697C26.3573 35.8697 26.1921 35.8157 26.0606 35.717L20.7008 31.6863C20.607 31.6157 20.534 31.525 20.4884 31.4224C20.4428 31.3197 20.426 31.2083 20.4397 31.0983L20.7404 28.6463C20.7619 28.4706 20.8594 28.3098 21.0113 28.1993C21.0866 28.1446 21.1729 28.104 21.2655 28.0796C21.358 28.0552 21.4549 28.0477 21.5507 28.0573C21.6465 28.067 21.7392 28.0937 21.8236 28.136C21.908 28.1782 21.9824 28.2351 22.0426 28.3035C22.1028 28.3719 22.1476 28.4504 22.1744 28.5345C22.2012 28.6186 22.2095 28.7067 22.1989 28.7937L21.9443 30.8917L26.5294 34.3397L31.1144 30.8697L30.8577 28.7883C30.836 28.6126 30.892 28.4362 31.0134 28.298C31.1348 28.1598 31.3117 28.0711 31.5051 28.0513C31.6985 28.0316 31.8926 28.0825 32.0447 28.1929C32.1968 28.3032 32.2944 28.4639 32.3161 28.6397L32.6169 31.0783C32.6305 31.1881 32.614 31.2993 32.5686 31.4018C32.5233 31.5043 32.4506 31.595 32.3572 31.6657L26.9967 35.7163C26.8649 35.8156 26.6991 35.8698 26.5279 35.8697Z" fill="#FC981C"/>
<path d="M16.6162 22.3723C16.5927 22.3723 16.57 22.3723 16.5472 22.369C15.5546 22.2358 14.6486 21.7806 13.9967 21.0874C13.3448 20.3943 12.9911 19.5101 13.0009 18.5983C13.028 17.9595 13.2387 17.3383 13.6119 16.7964C13.9852 16.2546 14.508 15.8109 15.1284 15.5096C15.3018 15.4293 15.5032 15.4148 15.6883 15.4694C15.8734 15.5239 16.0271 15.6431 16.1155 15.8006C16.2039 15.9582 16.2199 16.1412 16.1598 16.3094C16.0997 16.4776 15.9686 16.6173 15.7953 16.6976C15.4155 16.8868 15.0947 17.1603 14.8629 17.4927C14.631 17.8251 14.4957 18.2055 14.4696 18.5983C14.4674 19.1765 14.6876 19.7371 15.0922 20.1833C15.4968 20.6295 16.0602 20.9331 16.6851 21.0416C16.8797 21.0498 17.0627 21.1278 17.194 21.2586C17.3252 21.3894 17.3939 21.5622 17.385 21.739C17.376 21.9158 17.2902 22.0821 17.1463 22.2014C17.0024 22.3207 16.8122 22.3831 16.6176 22.375L16.6162 22.3723Z" fill="#FC981C"/>
<path d="M36.3488 22.3783C36.1543 22.3835 35.9654 22.3182 35.8238 22.1969C35.6821 22.0756 35.5993 21.9081 35.5936 21.7313C35.5878 21.5545 35.6596 21.3828 35.7931 21.2541C35.9267 21.1254 36.111 21.0501 36.3056 21.0449C36.9465 20.9547 37.5301 20.6575 37.9494 20.2078C38.3688 19.7582 38.5957 19.1863 38.5886 18.5969C38.5631 18.2195 38.437 17.8534 38.2213 17.5301C38.0056 17.2068 37.7067 16.936 37.3502 16.7409C37.1814 16.653 37.058 16.5077 37.0071 16.337C36.9562 16.1664 36.982 15.9843 37.0788 15.8309C37.1756 15.6775 37.3355 15.5654 37.5233 15.5191C37.711 15.4729 37.9114 15.4963 38.0802 15.5843C38.661 15.8959 39.1463 16.3352 39.4914 16.8619C39.8365 17.3886 40.0304 17.9857 40.055 18.5983C40.055 20.3263 38.5834 22.2576 36.3936 22.3776L36.3488 22.3783Z" fill="#FC981C"/>
<path d="M46.7947 47.8917H6.26193C6.06737 47.8917 5.88077 47.8214 5.74319 47.6964C5.60561 47.5714 5.52832 47.4018 5.52832 47.225V42.585C5.52832 37.0717 9.75099 32.1417 15.3514 31.1184L17.5999 30.6957C17.6944 30.6779 17.7917 30.6772 17.8865 30.6937C17.9813 30.7101 18.0715 30.7433 18.1521 30.7914C18.2328 30.8396 18.3022 30.9017 18.3564 30.9742C18.4106 31.0467 18.4486 31.1282 18.4681 31.214C18.4877 31.2999 18.4884 31.3884 18.4704 31.4745C18.4523 31.5606 18.4157 31.6426 18.3628 31.7159C18.3098 31.7891 18.2415 31.8522 18.1617 31.9015C18.0819 31.9507 17.9922 31.9852 17.8977 32.003L15.6448 32.427C10.7128 33.3297 6.99554 37.6977 6.99554 42.5884V46.5617H46.0611V42.5884C46.0611 37.717 42.3197 33.3597 37.3575 32.455L35.1075 32.091C35.0126 32.0757 34.922 32.0434 34.8407 31.9962C34.7595 31.949 34.6894 31.8877 34.6342 31.8158C34.5791 31.7439 34.5401 31.6629 34.5195 31.5773C34.4989 31.4917 34.497 31.4033 34.514 31.317C34.5301 31.2305 34.565 31.1477 34.6167 31.0736C34.6684 30.9995 34.7358 30.9355 34.8151 30.8853C34.8943 30.8351 34.9838 30.7999 35.0782 30.7815C35.1726 30.7631 35.2701 30.7621 35.365 30.7784L37.6312 31.1457C43.28 32.179 47.5283 37.0984 47.5283 42.5917V47.2317C47.5264 47.4073 47.4482 47.5752 47.3109 47.6988C47.1735 47.8224 46.988 47.8917 46.7947 47.8917Z" fill="#FC981C"/>
<path d="M26.5205 30.9029C25.0505 30.9057 23.6096 30.5309 22.3639 29.8216C19.4514 28.1809 15.9749 25.3029 15.9749 20.9249V18.9363C15.9749 18.7594 16.0521 18.5899 16.1897 18.4649C16.3273 18.3398 16.5139 18.2696 16.7085 18.2696C16.903 18.2696 17.0896 18.3398 17.2272 18.4649C17.3648 18.5899 17.4421 18.7594 17.4421 18.9363V20.9243C17.4421 24.6889 20.5409 27.2249 23.1415 28.6896C24.1563 29.2644 25.3281 29.5691 26.5238 29.5691C27.7196 29.5691 28.8914 29.2644 29.9061 28.6896C32.5119 27.2229 35.6151 24.6836 35.6151 20.9223V18.9363C35.6151 18.7594 35.6924 18.5899 35.83 18.4649C35.9676 18.3398 36.1541 18.2696 36.3487 18.2696C36.5433 18.2696 36.7299 18.3398 36.8675 18.4649C37.005 18.5899 37.0823 18.7594 37.0823 18.9363V20.9243C37.0823 25.2989 33.6013 28.1783 30.6823 29.8229C29.4339 30.5305 27.9918 30.9047 26.5205 30.9029Z" fill="#FC981C"/>
<path d="M16.8091 19.6028H16.6998C16.3283 19.6097 15.9668 19.4928 15.6838 19.274C15.4007 19.0552 15.2157 18.7498 15.1636 18.4155C15.1636 18.4155 14.9024 16.6882 14.5965 14.9415C14.5779 14.8538 14.5789 14.7635 14.5994 14.6761C14.62 14.5888 14.6596 14.506 14.716 14.4329C14.7725 14.3597 14.8445 14.2976 14.9278 14.2502C15.0112 14.2028 15.1042 14.1712 15.2013 14.1571C15.2983 14.143 15.3976 14.1468 15.493 14.1682C15.5884 14.1897 15.6782 14.2284 15.7568 14.2819C15.8355 14.3355 15.9015 14.4029 15.951 14.4802C16.0004 14.5574 16.0323 14.6429 16.0446 14.7315C16.3542 16.4988 16.6191 18.2455 16.6191 18.2455C16.6418 18.2622 16.6705 18.2707 16.6998 18.2695H16.8091C16.8317 18.2699 16.8542 18.2661 16.8751 18.2581C17.0045 17.3591 17.2208 16.4721 17.5214 15.6075C17.6263 15.2542 17.7415 14.8535 17.7606 14.7602C17.7916 14.5894 17.8926 14.4357 18.0433 14.3299C18.1939 14.224 18.383 14.1739 18.5727 14.1895C18.7593 14.2058 18.9315 14.2876 19.0527 14.4176C19.1738 14.5477 19.2343 14.7155 19.2212 14.8855C19.1548 15.2467 19.0602 15.6032 18.938 15.9522C18.6852 16.7222 18.486 17.506 18.3416 18.2988V18.3655C18.3121 18.7119 18.1359 19.0344 17.8501 19.2652C17.5642 19.4959 17.1911 19.617 16.8091 19.6028Z" fill="#FC981C"/>
<path d="M22.9847 37.9009C22.8753 37.9009 22.7673 37.8788 22.6685 37.836C22.5698 37.7932 22.4828 37.7309 22.414 37.6536L17.176 31.7656C17.0949 31.6744 17.0417 31.5654 17.0218 31.4495C17.0018 31.3337 17.0158 31.2152 17.0624 31.1058C17.109 30.9965 17.1865 30.9003 17.287 30.8268C17.3876 30.7534 17.5077 30.7053 17.6352 30.6876C18.8098 30.5309 19.997 30.4664 21.1837 30.4949C21.3497 30.4981 21.5095 30.5524 21.6371 30.6489L26.9924 34.6896C27.0819 34.7565 27.1526 34.8418 27.1988 34.9384C27.2449 35.035 27.2653 35.1401 27.2581 35.2452C27.251 35.3503 27.2165 35.4524 27.1576 35.5431C27.0986 35.6338 27.0169 35.7105 26.9191 35.7669L23.375 37.7982C23.2581 37.8652 23.1229 37.9007 22.9847 37.9009ZM19.1567 31.8696L23.1417 36.3516L25.2787 35.1262L20.8983 31.8216C20.2933 31.818 19.7128 31.834 19.1567 31.8696Z" fill="#FC981C"/>
<path d="M30.072 37.901C29.9339 37.9008 29.7986 37.8652 29.6818 37.7983L26.137 35.767C26.0389 35.7108 25.9569 35.6343 25.8976 35.5438C25.8383 35.4533 25.8035 35.3513 25.796 35.2461C25.7885 35.141 25.8085 35.0358 25.8543 34.9391C25.9002 34.8423 25.9707 34.7568 26.0599 34.6896L31.4153 30.649C31.5431 30.5523 31.7032 30.498 31.8694 30.495C33.0349 30.4934 34.1982 30.5851 35.346 30.769C35.4735 30.7867 35.5936 30.8348 35.6942 30.9082C35.7947 30.9816 35.8722 31.0779 35.9188 31.1872C35.9654 31.2965 35.9794 31.4151 35.9595 31.5309C35.9395 31.6468 35.8863 31.7558 35.8052 31.847L30.6421 37.6536C30.5733 37.7308 30.4865 37.7931 30.3878 37.8359C30.2892 37.8787 30.1813 37.9009 30.072 37.901ZM27.7751 35.129L29.9129 36.3543L33.8509 31.9256C33.2876 31.8627 32.7208 31.8296 32.1533 31.8263L27.7751 35.129Z" fill="#FC981C"/>
<path d="M21.3324 10.7949C21.309 10.7949 21.2855 10.7949 21.2591 10.7949C21.1632 10.7865 21.07 10.7611 20.9849 10.72C20.8998 10.6789 20.8245 10.623 20.7632 10.5555C20.7019 10.488 20.6558 10.4101 20.6276 10.3264C20.5994 10.2427 20.5896 10.1547 20.5988 10.0675C21.2569 3.88555 23.5831 -0.107117 26.5286 -0.107117C29.474 -0.107117 31.8025 3.88222 32.4562 10.0575C32.4684 10.146 32.461 10.2359 32.4343 10.3217C32.4077 10.4075 32.3623 10.4876 32.301 10.5573C32.2396 10.6269 32.1636 10.6846 32.0772 10.727C31.9909 10.7695 31.8961 10.7957 31.7984 10.8042C31.7007 10.8128 31.6021 10.8034 31.5085 10.7767C31.4148 10.7499 31.328 10.7064 31.2533 10.6486C31.1785 10.5909 31.1172 10.5201 31.073 10.4404C31.0289 10.3608 31.0028 10.2739 30.9963 10.1849C30.3808 4.36622 28.2342 1.22622 26.5286 1.22622C24.823 1.22622 22.6779 4.36822 22.0624 10.1915C22.045 10.3566 21.9607 10.5098 21.8257 10.6214C21.6907 10.733 21.5149 10.7948 21.3324 10.7949Z" fill="#FC981C"/>
<path d="M37.8549 13.203C37.668 13.2033 37.488 13.1388 37.3516 13.0226C37.2153 12.9063 37.1329 12.7472 37.1213 12.5777C36.676 6.003 32.2208 1.225 26.528 1.225C20.863 1.225 16.4041 5.97366 15.9339 12.5157C15.9211 12.6925 15.8316 12.8574 15.685 12.9743C15.5384 13.0911 15.3468 13.1502 15.1522 13.1387C15.0559 13.1329 14.9617 13.11 14.8751 13.0712C14.7885 13.0324 14.7112 12.9785 14.6476 12.9125C14.519 12.7793 14.4539 12.6051 14.4667 12.4283C14.9956 5.16433 20.0663 -0.108337 26.528 -0.108337C33.0219 -0.108337 38.0919 5.19366 38.5878 12.4977C38.5994 12.674 38.5336 12.8473 38.4047 12.9796C38.2758 13.1118 38.0944 13.1922 37.9004 13.203C37.8857 13.203 37.8696 13.203 37.8549 13.203Z" fill="#FC981C"/>
<path d="M37.9972 15.5085H14.9618C14.5501 15.507 14.1503 15.3828 13.8237 15.155C13.497 14.9273 13.2616 14.6085 13.1533 14.2475C13.0451 13.8865 13.0701 13.5033 13.2245 13.1564C13.3789 12.8096 13.6541 12.5183 14.0081 12.3272C21.9186 8.05652 30.7667 8.05052 38.9193 12.3112C39.2851 12.4972 39.5717 12.7893 39.7334 13.1407C39.8951 13.4921 39.9225 13.8826 39.8114 14.2499C39.7074 14.6138 39.4722 14.9356 39.1433 15.1637C38.8145 15.3919 38.4109 15.5133 37.9972 15.5085ZM26.3863 10.4612C22.2802 10.4876 18.2594 11.5291 14.7549 13.4739C14.6739 13.5139 14.6108 13.5783 14.5764 13.6561C14.542 13.7338 14.5385 13.82 14.5664 13.8999C14.5868 13.9805 14.6376 14.0521 14.7099 14.1024C14.7822 14.1526 14.8715 14.1784 14.9625 14.1752H37.9979C38.0875 14.1802 38.1762 14.1562 38.2481 14.1074C38.32 14.0585 38.3704 13.988 38.3904 13.9085C38.4172 13.8251 38.4114 13.7358 38.374 13.6558C38.3365 13.5758 38.2698 13.5101 38.185 13.4699C34.6129 11.539 30.5424 10.501 26.3863 10.4612Z" fill="#FC981C"/>
<path d="M26.5295 39.6203C26.3349 39.6203 26.1483 39.5501 26.0108 39.4251C25.8732 39.3001 25.7959 39.1305 25.7959 38.9537V38.707C25.7959 38.5302 25.8732 38.3606 26.0108 38.2356C26.1483 38.1106 26.3349 38.0403 26.5295 38.0403C26.7241 38.0403 26.9107 38.1106 27.0482 38.2356C27.1858 38.3606 27.2631 38.5302 27.2631 38.707V38.9537C27.2631 39.1305 27.1858 39.3001 27.0482 39.4251C26.9107 39.5501 26.7241 39.6203 26.5295 39.6203Z" fill="#FC981C"/>
<path d="M26.5295 42.5163C26.3349 42.5163 26.1483 42.4461 26.0108 42.3211C25.8732 42.1961 25.7959 42.0265 25.7959 41.8497V41.603C25.7959 41.4262 25.8732 41.2566 26.0108 41.1316C26.1483 41.0066 26.3349 40.9363 26.5295 40.9363C26.7241 40.9363 26.9107 41.0066 27.0482 41.1316C27.1858 41.2566 27.2631 41.4262 27.2631 41.603V41.8497C27.2631 42.0265 27.1858 42.1961 27.0482 42.3211C26.9107 42.4461 26.7241 42.5163 26.5295 42.5163Z" fill="#FC981C"/>
<path d="M26.5295 45.4123C26.3349 45.4123 26.1483 45.3421 26.0108 45.2171C25.8732 45.092 25.7959 44.9225 25.7959 44.7457V44.499C25.7959 44.3222 25.8732 44.1526 26.0108 44.0276C26.1483 43.9026 26.3349 43.8323 26.5295 43.8323C26.7241 43.8323 26.9107 43.9026 27.0482 44.0276C27.1858 44.1526 27.2631 44.3222 27.2631 44.499V44.7457C27.2631 44.9225 27.1858 45.092 27.0482 45.2171C26.9107 45.3421 26.7241 45.4123 26.5295 45.4123Z" fill="#FC981C"/>
<path d="M14.4944 47.8917C14.2998 47.8917 14.1132 47.8215 13.9756 47.6965C13.838 47.5714 13.7607 47.4019 13.7607 47.2251V40.6531C13.7607 40.4762 13.838 40.3067 13.9756 40.1817C14.1132 40.0566 14.2998 39.9864 14.4944 39.9864C14.6889 39.9864 14.8755 40.0566 15.0131 40.1817C15.1507 40.3067 15.228 40.4762 15.228 40.6531V47.2251C15.228 47.4019 15.1507 47.5714 15.0131 47.6965C14.8755 47.8215 14.6889 47.8917 14.4944 47.8917Z" fill="#FC981C"/>
<path d="M38.5627 47.8917C38.3681 47.8917 38.1815 47.8215 38.044 47.6965C37.9064 47.5714 37.8291 47.4019 37.8291 47.2251V40.6531C37.8291 40.4762 37.9064 40.3067 38.044 40.1817C38.1815 40.0566 38.3681 39.9864 38.5627 39.9864C38.7573 39.9864 38.9439 40.0566 39.0815 40.1817C39.219 40.3067 39.2963 40.4762 39.2963 40.6531V47.2251C39.2963 47.4019 39.219 47.5714 39.0815 47.6965C38.9439 47.8215 38.7573 47.8917 38.5627 47.8917Z" fill="#FC981C"/>
<path d="M36.3605 19.6029H36.2497C35.8684 19.6172 35.4958 19.4968 35.2102 19.2668C34.9246 19.0368 34.7481 18.7152 34.7179 18.3695C34.7165 18.3447 34.7165 18.3197 34.7179 18.2949C34.5722 17.5021 34.3722 16.7184 34.1193 15.9482C33.9979 15.6009 33.9037 15.2463 33.8376 14.8869C33.8248 14.7133 33.8871 14.542 34.0113 14.4097C34.1355 14.2773 34.3118 14.1943 34.5024 14.1784C34.693 14.1624 34.883 14.2149 35.0316 14.3244C35.1803 14.434 35.276 14.5921 35.2982 14.7649C35.3187 14.8669 35.4339 15.2569 35.5366 15.6015C35.8382 16.468 36.0549 17.357 36.1844 18.2582C36.2048 18.266 36.2268 18.2698 36.249 18.2695H36.3597C36.3751 18.2705 36.3906 18.2684 36.405 18.2634C36.4194 18.2585 36.4325 18.2508 36.4434 18.2409C36.4434 18.2409 36.7053 16.4969 37.0141 14.7315C37.0458 14.5578 37.1519 14.4025 37.3091 14.2996C37.4664 14.1967 37.662 14.1545 37.8534 14.1822C38.0448 14.2099 38.2163 14.3054 38.3305 14.4476C38.4447 14.5899 38.4924 14.7675 38.463 14.9415C38.1564 16.6935 37.8937 18.4255 37.893 18.4275C37.8389 18.7595 37.6534 19.062 37.3712 19.2784C37.089 19.4949 36.7296 19.6102 36.3605 19.6029Z" fill="#FC981C"/>
</g>
<defs>
<clipPath id="clip0_1_256">
<rect width="48" height="48" fill="white"/>
</clipPath>
</defs>
</svg>
