<svg width="48" height="48" viewBox="0 0 48 48" fill="none" xmlns="http://www.w3.org/2000/svg">
<g clip-path="url(#clip0_1_277)">
<path d="M42.3764 5.62384C34.8782 -1.87429 22.6778 -1.87429 15.1797 5.62384C7.90386 12.8997 7.68819 24.6031 14.5327 32.1415L11.9401 34.7341L10.5414 33.3354C10.3655 33.1596 10.1271 33.0608 9.87841 33.0608C9.62974 33.0608 9.3912 33.1596 9.21538 33.3354L1.12868 41.4222C0.400856 42.15 0 43.1176 0 44.1469C0 45.1762 0.400856 46.1438 1.12859 46.8716C1.85641 47.5994 2.82409 48.0002 3.85328 48.0002C4.88257 48.0002 5.85016 47.5994 6.57798 46.8716L14.6648 38.7849C14.8406 38.6091 14.9394 38.3706 14.9394 38.1219C14.9394 37.8732 14.8406 37.6347 14.6648 37.4589L13.2661 36.0602L15.8587 33.4677C19.5128 36.7853 24.1454 38.4442 28.778 38.4442C33.7026 38.4442 38.6273 36.5697 42.3764 32.8206C49.8745 25.3223 49.8745 13.122 42.3764 5.62384ZM5.25192 45.5455C4.87835 45.919 4.38167 46.1249 3.85328 46.1249C3.325 46.1249 2.82822 45.9191 2.45474 45.5455C2.08108 45.1719 1.87535 44.6752 1.87535 44.1469C1.87535 43.6186 2.08108 43.1219 2.45474 42.7483L9.87841 35.3245L12.6757 38.1218L5.25192 45.5455ZM41.0503 31.4944C34.2834 38.2614 23.2727 38.2614 16.5058 31.4945C9.73889 24.7275 9.73889 13.7168 16.5057 6.9499C19.8892 3.56639 24.3336 1.87463 28.778 1.87463C33.2224 1.87463 37.6668 3.56639 41.0502 6.9499C47.8172 13.7168 47.8172 24.7275 41.0503 31.4944Z" fill="#FC981C"/>
<path d="M43.8579 19.0388C43.7854 18.6524 43.4585 18.3506 43.0722 18.2943C42.6829 18.2376 42.2829 18.4414 42.1054 18.7936C41.9289 19.144 41.9851 19.575 42.2548 19.8627C42.5193 20.1448 42.9398 20.2353 43.2972 20.0881C43.7047 19.9204 43.9456 19.471 43.8579 19.0388Z" fill="#FC981C"/>
<path d="M42.5625 22.6124C42.0685 22.4566 41.5419 22.7307 41.3862 23.2245C40.744 25.2596 39.6496 27.0604 38.133 28.577C35.6343 31.0757 32.312 32.4519 28.7781 32.4519C25.2443 32.4519 21.9219 31.0758 19.4231 28.577C14.2648 23.4186 14.2648 15.0255 19.4231 9.86715C21.9219 7.36834 25.2443 5.99221 28.7781 5.99221C32.312 5.99221 35.6343 7.36834 38.133 9.86715C39.6325 11.3667 40.7593 13.2235 41.3915 15.2367C41.5466 15.7308 42.073 16.0055 42.5671 15.8503C43.0611 15.6952 43.3359 15.1688 43.1807 14.6747C42.4583 12.3744 41.1714 10.2534 39.459 8.541C36.6061 5.68793 32.8128 4.11676 28.7781 4.11676C24.7434 4.11676 20.9501 5.68793 18.097 8.541C12.2076 14.4305 12.2076 24.0135 18.097 29.903C20.9501 32.756 24.7433 34.3273 28.7781 34.3273C32.8129 34.3273 36.6061 32.7561 39.459 29.903C41.1665 28.1957 42.4513 26.0814 43.1746 23.7888C43.3303 23.2949 43.0564 22.7682 42.5625 22.6124Z" fill="#FC981C"/>
<path d="M31.2743 14.4124L27.6395 18.0473L26.2819 16.6896C25.0696 15.4774 23.0972 15.4774 21.885 16.6896C20.6728 17.9018 20.6728 19.8743 21.885 21.0865L26.0111 25.2126C26.4601 25.6616 27.0498 25.886 27.6396 25.886C28.2294 25.886 28.8192 25.6616 29.2682 25.2126L35.6714 18.8093C36.8836 17.5971 36.8836 15.6247 35.6714 14.4124C35.6714 14.4124 35.6714 14.4124 35.6714 14.4123C34.459 13.2001 32.4865 13.2002 31.2743 14.4124ZM34.3452 17.4832L27.942 23.8865C27.7753 24.0534 27.5039 24.0534 27.3371 23.8866L23.2112 19.7606C22.7301 19.2796 22.7301 18.4969 23.2112 18.0158C23.4517 17.7753 23.7676 17.655 24.0836 17.655C24.3995 17.655 24.7155 17.7753 24.9559 18.0158L26.9766 20.0364C27.1525 20.2123 27.3909 20.3111 27.6396 20.3111C27.8883 20.3111 28.1268 20.2123 28.3026 20.0364L32.6005 15.7386C33.0815 15.2575 33.8643 15.2576 34.3452 15.7385C34.8262 16.2195 34.8262 17.0022 34.3452 17.4832Z" fill="#FC981C"/>
</g>
<defs>
<clipPath id="clip0_1_277">
<rect width="48" height="48" fill="white"/>
</clipPath>
</defs>
</svg>
