<svg width="48" height="48" viewBox="0 0 48 48" fill="none" xmlns="http://www.w3.org/2000/svg">
<path d="M45.6975 10.4334L11.3183 4.30104C9.81174 4.03007 8.34813 5.08413 8.08684 6.58258L5.87264 19.2848H2.70968C1.21548 19.2848 0 20.5006 0 21.9945V41.0319C0 42.5257 1.21548 43.7416 2.70968 43.7416H37.7756C39.2698 43.7416 40.4853 42.5257 40.4853 41.0319V34.3378C41.4898 34.517 42.4595 34.7284 43.3881 34.1729C44.0849 33.756 44.5846 33.0372 44.7244 32.2363L47.9574 13.6881C48.2234 12.1626 47.2095 10.7025 45.6975 10.4334ZM9.61239 6.84852C9.72852 6.1831 10.3742 5.70504 11.0466 5.82504L45.4258 11.9574C46.1005 12.0778 46.5519 12.7347 46.4323 13.4218L45.8988 16.4837L9.07742 9.91626L9.61239 6.84852ZM38.9369 41.0319C38.9369 41.6721 38.4159 42.1932 37.7756 42.1932H2.70968C2.06942 42.1932 1.54839 41.6721 1.54839 41.0319V21.9945C1.54839 21.3542 2.06942 20.8332 2.70968 20.8332H37.7756C38.4159 20.8332 38.9369 21.3542 38.9369 21.9945V41.0319ZM43.1992 31.9703C42.9585 33.3472 41.4294 32.9334 40.4853 32.765V21.9945C40.4853 20.5006 39.2698 19.2848 37.7756 19.2848H7.44464L8.81148 11.4414L11.0543 11.8413L45.6325 18.0089L43.1992 31.9703Z" fill="#FC981C"/>
<path d="M18.2397 39.0979H13.7881C13.3608 39.0979 13.0139 38.7511 13.0139 38.3238C13.0139 37.8964 13.3608 37.5496 13.7881 37.5496H18.2397C18.6671 37.5496 19.0139 37.8964 19.0139 38.3238C19.0139 38.7511 18.6675 39.0979 18.2397 39.0979Z" fill="#FC981C"/>
<path d="M9.7822 39.0979H5.33059C4.90324 39.0979 4.5564 38.7511 4.5564 38.3238C4.5564 37.8964 4.90324 37.5496 5.33059 37.5496H9.7822C10.2096 37.5496 10.5564 37.8964 10.5564 38.3238C10.5564 38.7511 10.2096 39.0979 9.7822 39.0979Z" fill="#FC981C"/>
<path d="M26.697 39.0979H22.2454C21.818 39.0979 21.4712 38.7511 21.4712 38.3238C21.4712 37.8964 21.818 37.5496 22.2454 37.5496H26.697C27.1244 37.5496 27.4712 37.8964 27.4712 38.3238C27.4712 38.7511 27.1247 39.0979 26.697 39.0979Z" fill="#FC981C"/>
<path d="M35.1545 39.0979H30.7029C30.2755 39.0979 29.9287 38.7511 29.9287 38.3238C29.9287 37.8964 30.2755 37.5496 30.7029 37.5496H35.1545C35.5819 37.5496 35.9287 37.8964 35.9287 38.3238C35.9287 38.7511 35.5819 39.0979 35.1545 39.0979Z" fill="#FC981C"/>
<path d="M11.7825 35.0814H6.17499C5.10776 35.0814 4.2395 34.2132 4.2395 33.146V30.9225C4.2395 29.8553 5.10776 28.987 6.17499 28.987H11.7825C12.8497 28.987 13.718 29.8553 13.718 30.9225V33.146C13.718 34.2128 12.8493 35.0814 11.7825 35.0814ZM6.17499 30.535C5.9617 30.535 5.78789 30.7084 5.78789 30.9221V33.1456C5.78789 33.3593 5.9617 33.5327 6.17499 33.5327H11.7825C11.9958 33.5327 12.1696 33.3593 12.1696 33.1456V30.9221C12.1696 30.7084 11.9958 30.535 11.7825 30.535H6.17499Z" fill="#FC981C"/>
</svg>
